<?xml version="1.0" encoding="UTF-8"?><svg id="Layer_2" xmlns="http://www.w3.org/2000/svg" viewBox="0 0 152 133.43"><defs><style>.cls-1{fill:#499ec9;}.cls-2{fill:#f4f0dc;stroke:#706467;stroke-miterlimit:10;stroke-width:12px;}</style></defs><g id="Layer_5"><path class="cls-1" d="m37.14,84.53c-4.67,16.03-21.07,32.51-37.14,37.14,4.62-16.06,21.1-32.46,37.14-37.14h0Z"/><path class="cls-1" d="m36.24,112.63c.04,3.51-.81,6.12-1.87,8.53-1.1,2.37-2.56,4.37-4.29,6.11-1.73,1.73-3.74,3.2-6.1,4.3-2.4,1.06-5.02,1.91-8.54,1.86-.05-3.52.8-6.14,1.86-8.54,1.1-2.36,2.56-4.37,4.3-6.1,1.74-1.72,3.75-3.19,6.11-4.29,2.41-1.06,5.02-1.91,8.53-1.87Z"/><path class="cls-1" d="m58.46,91.15c1.01,10.29-6.97,18.34-17.28,17.28-1.06-10.31,6.99-18.29,17.28-17.28h0Z"/><path class="cls-1" d="m80.52,100.71c-2.07,13.42-14.49,25.92-27.94,27.94,2.02-13.45,14.52-25.87,27.94-27.94h0Z"/><path class="cls-1" d="m118.4,92.2c-2.07,13.42-14.49,25.92-27.94,27.94,2.02-13.45,14.52-25.87,27.94-27.94h0Z"/><path class="cls-2" d="m114.22,35.27c-1.71-16.45-15.61-29.27-32.51-29.27-15.47,0-28.42,10.75-31.82,25.19-2.88-.79-5.92-1.21-9.05-1.21-18.96,0-34.33,15.37-34.33,34.33s15.37,34.33,34.33,34.33c9.36,0,17.85-3.75,24.04-9.83,8.21,8.41,21.32,13.85,36.09,13.85,24.87,0,45.02-15.42,45.02-34.44,0-15.5-13.38-28.6-31.78-32.93Z"/></g></svg>