<?xml version="1.0" encoding="UTF-8"?><svg id="Layer_2" xmlns="http://www.w3.org/2000/svg" viewBox="0 0 65.7 67.52"><defs><style>.cls-1{stroke-width:6px;}.cls-1,.cls-2{fill:none;stroke:#995037;stroke-linecap:round;stroke-miterlimit:10;}.cls-3{fill:#6d3729;}.cls-4{fill:#ba703e;}.cls-2{stroke-width:7px;}</style></defs><g id="Layer_15"><polygon class="cls-3" points="10.94 29.51 32.97 4.92 57.18 29.12 10.94 29.51"/><path class="cls-4" d="m52.42,64.02H13.27c-2.49,0-4.52-2.02-4.52-4.52v-23.85c0-2.49,2.02-4.52,4.52-4.52h39.15c2.49,0,4.52,2.02,4.52,4.52v23.85c0,2.49-2.02,4.52-4.52,4.52Zm-32.17-.98h25.75v-8.9c0-3.55-1.44-6.77-3.77-9.1-2.33-2.33-5.54-3.77-9.1-3.77-7.11,0-12.88,5.76-12.88,12.87v8.9Z"/><path class="cls-3" d="m46,54.14v8.9h-25.75v-8.9c0-7.11,5.76-12.87,12.88-12.87,3.56,0,6.77,1.44,9.1,3.77,2.33,2.33,3.77,5.55,3.77,9.1Z"/><line class="cls-2" x1="32.82" y1="3.5" x2="3.5" y2="32.82"/><line class="cls-2" x1="62.2" y1="32.99" x2="32.88" y2="3.67"/><rect class="cls-2" x="8.75" y="31.15" width="48.18" height="32.88" rx="4.52" ry="4.52"/><path class="cls-1" d="m46,63.04h-25.75v-8.9c0-7.11,5.76-12.87,12.88-12.87,3.56,0,6.77,1.44,9.1,3.77,2.33,2.33,3.77,5.55,3.77,9.1v8.9Z"/></g></svg>