<?xml version="1.0" encoding="UTF-8"?><svg id="Layer_2" xmlns="http://www.w3.org/2000/svg" viewBox="0 0 118.9 189.55"><defs><style>.cls-1,.cls-2{fill:#92c6ff;}.cls-1,.cls-2,.cls-3,.cls-4{stroke-miterlimit:10;stroke-width:8px;}.cls-1,.cls-4{stroke:#234466;}.cls-2{stroke:#336199;}.cls-3{fill:#fff5c5;stroke:#999971;}.cls-4{fill:none;stroke-linecap:round;}</style></defs><g id="Layer_17"><line class="cls-1" x1="58.42" y1="45.05" x2="58.42" y2="32.9"/><path class="cls-4" d="m62.33,33.86c-8.24,0-14.93-6.68-14.93-14.93s6.68-14.93,14.93-14.93"/><polygon class="cls-3" points="84.05 171.13 34.58 171.13 17.2 83.02 101.7 83.02 84.05 171.13"/><path class="cls-2" d="m107.73,86.73H11.16c-5.04,0-8.5-5.07-6.66-9.76l9.92-23.68c1.07-2.74,3.72-4.55,6.66-4.55h76.68c2.99,0,5.66,1.86,6.7,4.65l9.97,23.68c1.74,4.68-1.71,9.66-6.7,9.66Z"/><path class="cls-2" d="m28.9,160.57h61.09c3.9,0,6.58,3.92,5.16,7.56l-5.43,13.9c-.83,2.12-2.88,3.52-5.16,3.52h-50.47c-2.31,0-4.38-1.44-5.19-3.6l-5.19-13.9c-1.35-3.62,1.33-7.47,5.19-7.47Z"/></g></svg>