<?xml version="1.0" encoding="UTF-8"?><svg id="Layer_2" xmlns="http://www.w3.org/2000/svg" viewBox="0 0 138.97 138.97"><defs><style>.cls-1{fill:#d8bc48;}.cls-2{fill:#ffdd4d;stroke:#d8bc48;stroke-miterlimit:10;stroke-width:12px;}</style></defs><g id="Layer_4"><circle class="cls-2" cx="69.48" cy="69.48" r="23.57"/><g id="_Radial_Repeat_"><path class="cls-1" d="m32.74,128.91c.89-11.87,10.42-23.89,21.83-27.37-.85,11.89-10.45,23.86-21.83,27.37h0Z"/></g><g id="_Radial_Repeat_-2"><path class="cls-1" d="m.11,77.81c9.84-6.7,25.17-6.75,35.01,0-9.83,6.75-25.16,6.71-35.01,0H.11Z"/></g><g id="_Radial_Repeat_-3"><path class="cls-1" d="m19.73,20.44c11.38,3.51,20.97,15.47,21.83,27.37-11.4-3.48-20.93-15.49-21.83-27.37h0Z"/></g><g id="_Radial_Repeat_-4"><path class="cls-1" d="m76.81,0c4.35,11.09.98,26.05-7.79,34.13C64.63,23.05,68.08,8.11,76.81,0h0Z"/></g><g id="_Radial_Repeat_-5"><path class="cls-1" d="m128.38,31.89c-5.96,10.31-19.75,17-31.54,15.19,5.93-10.34,19.76-16.96,31.54-15.19h0Z"/></g><g id="_Radial_Repeat_-6"><path class="cls-1" d="m135.6,92.09c-11.77,1.77-25.61-4.84-31.54-15.19,11.78-1.82,25.58,4.88,31.54,15.19h0Z"/></g><g id="_Radial_Repeat_-7"><path class="cls-1" d="m93.03,135.27c-8.73-8.1-12.18-23.04-7.79-34.13,8.77,8.08,12.14,23.04,7.79,34.13h0Z"/></g></g></svg>