<?xml version="1.0" encoding="UTF-8"?><svg id="Layer_2" xmlns="http://www.w3.org/2000/svg" viewBox="0 0 127.48 83.78"><defs><style>.cls-1{fill:#723699;}.cls-2{fill:#684d26;font-family:NewFarm-Bold, 'New Farm';font-size:28.51px;font-weight:700;}.cls-3{fill:#af771e;stroke:#684d26;}.cls-3,.cls-4,.cls-5{stroke-miterlimit:10;stroke-width:8px;}.cls-4{fill:#62b9d1;stroke:#49798e;}.cls-5{fill:#bb5cff;stroke:#723699;}</style></defs><g id="Layer_13"><circle class="cls-3" cx="100.17" cy="45.62" r="23.3"/><circle class="cls-5" cx="62.38" cy="31.5" r="27.5"/><circle class="cls-1" cx="58.81" cy="27.39" r="3.03"/><circle class="cls-1" cx="57.52" cy="35.58" r="3.03"/><circle class="cls-1" cx="67.2" cy="28.66" r="3.03"/><circle class="cls-1" cx="65.92" cy="36.86" r="3.03"/><text class="cls-2" transform="translate(87.16 50.32) rotate(25.64)"><tspan x="0" y="0">$</tspan></text><path class="cls-4" d="m9.3,21.12c6.96-4.21,16.55-2.57,23.03.56,3.63,1.75,6.07,3.88,7.31,5.08,2.05,1.97,6.93,6.67,7.01,12.38.06,3.94-.16,3.82.33,7.05.76,5.01,4.61,10.04,7.97,11.9,3.54,1.97,9.05,6.13,13.22,4.66,3.13-1.11,5.13-2.13,7.4-1.84,1.85.23,2.02-.49,4.5,3.53,3,4.86,3.59,5.74,3.25,8.07-.5,3.43-3.57,6.16-6.84,6.72-3.01.52-7.19,1.07-10.67-.43-8.85-3.81-8.89-3.18-16.14-5.92-7.01-2.65-16.88-9.61-17.78-17.49-.59-5.12,2.9-8.05.45-13.14-1.41-2.92-3.87-4.67-4.63-5.19-3.66-2.53-7.54-2.73-9.75-2.82-5.22-.2-6.46,1.54-9.29.27-2.47-1.11-4.53-3.79-4.66-6.4-.18-3.69,3.59-5.97,5.29-7Z"/></g></svg>