<?xml version="1.0" encoding="UTF-8"?><svg id="Layer_2" xmlns="http://www.w3.org/2000/svg" xmlns:xlink="http://www.w3.org/1999/xlink" viewBox="0 0 201.65 183.63"><defs><style>.cls-1{stroke:#605a57;stroke-width:3px;}.cls-1,.cls-2,.cls-3,.cls-4,.cls-5{fill:none;stroke-miterlimit:10;}.cls-6{fill:url(#linear-gradient);}.cls-7{fill:#fd0;}.cls-8{fill:#161515;}.cls-9{fill:#9aa4a7;}.cls-10{fill:#4b4135;}.cls-11{fill:#282725;}.cls-2{stroke-linecap:round;stroke-width:7px;}.cls-2,.cls-5{stroke:#383533;}.cls-3{stroke:#594f1b;}.cls-3,.cls-4{stroke-width:2px;}.cls-4{stroke:#353230;}.cls-5{stroke-width:4px;}.cls-12{fill:url(#linear-gradient-3);}.cls-13{fill:url(#linear-gradient-2);}</style><linearGradient id="linear-gradient" x1="48.44" y1="317.39" x2="97.03" y2="317.39" gradientTransform="translate(2.23 -226.31) rotate(-10.63)" gradientUnits="userSpaceOnUse"><stop offset="0" stop-color="#fd0"/><stop offset=".63" stop-color="#4b4135"/></linearGradient><linearGradient id="linear-gradient-2" x1="40.96" y1="314.59" x2="89.55" y2="314.59" xlink:href="#linear-gradient"/><linearGradient id="linear-gradient-3" x1="36.47" y1="306.92" x2="85.05" y2="306.92" xlink:href="#linear-gradient"/></defs><g id="Layer_24"><path class="cls-8" d="m172.39,29.58l-4.16-.38-4.66-.55c-.11.04-.22.07-.33.1h-.02l14.2-8.36c11.05.1,19.57,6.89,19.57,6.89l-16.28,3.05-8.32-.75Z"/><path class="cls-11" d="m172.18,29.67c.1-.05.17-.08.21-.09l8.32.75-3.47.65c-1.26.24-2.22,1.27-2.37,2.54-.43,3.69-1.55,11.79-3.85,21.67l-.38-.09c-14.93-17.23-.48-24.53,1.54-25.43Z"/><path class="cls-11" d="m177.42,20.39l-14.2,8.36h.02c-34.57,10.88-24.99-8.32-24.99-8.32l27.08-.03h12.09Z"/><path class="cls-7" d="m177.42,20.39h-12.09s0,0,0,0c-27.31-10.21-18.98-16.62-18.54-16.94,0,0,.02,0,.02,0,.11-.02.22-.05.34-.08,17.99-5.99,25.48,9.45,27.57,15.1.42,1.14,1.49,1.92,2.7,1.93Z"/><path class="cls-9" d="m168.23,29.2l4.16.38s-.11.04-.21.09l-3.95-.47Z"/><path class="cls-9" d="m168.23,29.2l3.95.47c-2.02.9-16.47,8.2-1.54,25.43l.38.09c-3.73,16.03-10.61,36.73-22.83,50.69-.12.13-.24.25-.38.36-23.07,18.92-56.93,16.12-63.06,15.43-.64-.07-1.28.07-1.84.41l-36.22,21.86c-.29.18-.55.4-.76.67l-23.35,28.76c-.13.16-.27.31-.43.43-17.51,14.31-19.85,5.32-20.14,1.76-.06-.76.17-1.5.64-2.09l35.24-43.51c.45-.56.66-1.21.66-1.83,0-1.52-1.19-2.94-2.93-2.94,0,0,55.32-14.55,108.96-41.84,6.19-3.14,11.11-8.37,13.76-14.79,7.04-17.1.17-24.98-8.03-28.62-7.57-3.35-16.25-3.08-23.76.4l-67.22,31.24,10.76-18.65c4.4-7.63,10.61-14.06,18.1-18.72,16.75-10.41,47.13-28.58,58.6-30.76-.44.32-8.77,6.73,18.54,16.94h0s-27.08.04-27.08.04c0,0-9.58,19.2,24.99,8.32l4.99.45Z"/><path class="cls-11" d="m168.23,29.2l-4.99-.45c.11-.03.22-.06.33-.1l4.66.55Z"/><path class="cls-10" d="m150.31,39.94c8.2,3.64,15.07,11.52,8.03,28.62-2.65,6.42-7.57,11.65-13.76,14.79-53.64,27.29-108.96,41.84-108.96,41.84-2.37,0-3.76-2.67-2.4-4.61l15.84-22.67c.62-.88.7-2.03.22-2.99l-.62-1.24c-.42-.85-.41-1.85.04-2.69l7.24-13.54,3.39-5.87,67.22-31.24c7.51-3.48,16.19-3.75,23.76-.4Z"/><path class="cls-3" d="m146.79,3.45c-.44.32-8.77,6.73,18.54,16.94"/><path class="cls-4" d="m180.81,30.34h-.1s-8.32-.76-8.32-.76l-4.16-.38-4.99-.45h-.02l14.2-8.36h-12.09s-27.08.04-27.08.04c0,0-9.58,19.2,24.99,8.32.11-.03.22-.06.33-.1"/><path class="cls-4" d="m172.41,29.57s-.01,0-.02.01c-.04.01-.11.04-.21.09-2.02.9-16.47,8.2-1.54,25.43"/><line class="cls-4" x1="172.18" y1="29.67" x2="178.15" y2="30.38"/><path class="cls-1" d="m59.33,71.58l67.22-31.24c7.51-3.48,16.19-3.75,23.76-.4,8.2,3.64,15.07,11.52,8.03,28.62-2.65,6.42-7.57,11.65-13.76,14.79-53.64,27.29-108.96,41.84-108.96,41.84"/><path class="cls-5" d="m177.42,20.39c-1.21-.01-2.28-.79-2.7-1.93-2.09-5.65-9.58-21.09-27.57-15.1-.12.03-.23.06-.34.08,0,0-.01,0-.02,0-11.47,2.18-41.85,20.35-58.6,30.76-7.49,4.66-13.7,11.09-18.1,18.72l-10.76,18.65-3.39,5.87-7.24,13.54c-.45.84-.46,1.84-.04,2.69l.62,1.24c.48.96.4,2.11-.22,2.99l-15.84,22.67c-1.36,1.94.03,4.61,2.4,4.61,1.74,0,2.93,1.42,2.93,2.94,0,.62-.21,1.27-.66,1.83L2.65,173.47c-.47.59-.7,1.33-.64,2.09.29,3.56,2.63,12.55,20.14-1.76.16-.12.3-.27.43-.43l23.35-28.76c.21-.27.47-.49.76-.67l36.22-21.86c.56-.34,1.2-.48,1.84-.41,6.13.69,39.99,3.49,63.06-15.43.14-.11.26-.23.38-.36,12.22-13.96,19.1-34.66,22.83-50.69,2.3-9.88,3.42-17.98,3.85-21.67.15-1.27,1.11-2.3,2.37-2.54l3.47-.65,16.28-3.05s-8.52-6.79-19.57-6.89Z"/><circle class="cls-8" cx="154.79" cy="23.14" r="5"/><path class="cls-6" d="m113.66,75.5c-5.35,6.72-12.32,19.39,27.77,3,7.02-2.87,12.13-9.27,12.95-16.81.04-.33.07-.67.09-1.01.61-9-25.21,4.41-34.48,9.5-2.44,1.34-4.59,3.15-6.33,5.32Z"/><path class="cls-13" d="m105.8,74.13c-5.35,6.72-12.32,19.39,27.77,3,7.02-2.87,12.13-9.27,12.95-16.81.04-.33.07-.67.09-1.01.61-9-25.21,4.41-34.48,9.5-2.44,1.34-4.59,3.15-6.33,5.32Z"/><path class="cls-12" d="m99.96,67.42c-5.35,6.72-12.32,19.39,27.77,3,7.02-2.87,12.13-9.27,12.95-16.81.04-.33.07-.67.09-1.01.61-9-25.21,4.41-34.48,9.5-2.44,1.34-4.59,3.15-6.33,5.32Z"/><path class="cls-2" d="m112.13,128.63s3.21-8.28,23.51-9.35"/></g></svg>