<?xml version="1.0" encoding="UTF-8"?><svg id="Layer_2" xmlns="http://www.w3.org/2000/svg" viewBox="0 0 151.49 141.14"><defs><style>.cls-1{stroke-width:5px;}.cls-1,.cls-2{fill:none;stroke:#85a8a8;}.cls-1,.cls-2,.cls-3{stroke-miterlimit:10;}.cls-2{stroke-width:5px;}.cls-3{fill:#f4f0dc;stroke:#706467;stroke-width:12px;}</style></defs><g id="Layer_7"><g id="_Radial_Repeat_"><line class="cls-2" x1="14.15" y1="119.05" x2="31.61" y2="101.18"/></g><g id="_Radial_Repeat_-2"><line class="cls-2" x1="9.8" y1="108.9" x2="34.79" y2="108.61"/></g><g id="_Radial_Repeat_-3"><line class="cls-2" x1="13.91" y1="98.65" x2="31.79" y2="116.12"/></g><g id="_Radial_Repeat_-4"><line class="cls-2" x1="24.07" y1="94.31" x2="24.35" y2="119.3"/></g><g id="_Radial_Repeat_-5"><line class="cls-2" x1="34.32" y1="98.42" x2="16.85" y2="116.29"/></g><g id="_Radial_Repeat_-6"><line class="cls-2" x1="38.66" y1="108.57" x2="13.67" y2="108.86"/></g><g id="_Radial_Repeat_-7"><line class="cls-2" x1="34.55" y1="118.82" x2="16.68" y2="101.35"/></g><g id="_Radial_Repeat_-8"><line class="cls-2" x1="24.4" y1="123.16" x2="24.11" y2="98.18"/></g><g id="_Radial_Repeat_-9"><line class="cls-1" x1="49.43" y1="137.01" x2="66.9" y2="119.13"/></g><g id="_Radial_Repeat_-10"><line class="cls-1" x1="45.09" y1="126.86" x2="70.08" y2="126.57"/></g><g id="_Radial_Repeat_-11"><line class="cls-1" x1="49.2" y1="116.6" x2="67.07" y2="134.07"/></g><g id="_Radial_Repeat_-12"><line class="cls-1" x1="59.35" y1="112.26" x2="59.64" y2="137.25"/></g><g id="_Radial_Repeat_-13"><line class="cls-1" x1="69.6" y1="116.37" x2="52.14" y2="134.24"/></g><g id="_Radial_Repeat_-14"><line class="cls-1" x1="73.94" y1="126.52" x2="48.96" y2="126.81"/></g><g id="_Radial_Repeat_-15"><line class="cls-1" x1="69.84" y1="136.77" x2="51.96" y2="119.31"/></g><g id="_Radial_Repeat_-16"><line class="cls-1" x1="59.68" y1="141.11" x2="59.4" y2="116.13"/></g><g id="_Radial_Repeat_-17"><line class="cls-1" x1="82.24" y1="115.96" x2="99.71" y2="98.09"/></g><g id="_Radial_Repeat_-18"><line class="cls-1" x1="77.9" y1="105.81" x2="102.89" y2="105.52"/></g><g id="_Radial_Repeat_-19"><line class="cls-1" x1="82.01" y1="95.56" x2="99.88" y2="113.02"/></g><g id="_Radial_Repeat_-20"><line class="cls-1" x1="92.16" y1="91.21" x2="92.45" y2="116.2"/></g><g id="_Radial_Repeat_-21"><line class="cls-1" x1="102.41" y1="95.32" x2="84.95" y2="113.19"/></g><g id="_Radial_Repeat_-22"><line class="cls-1" x1="106.75" y1="105.47" x2="81.77" y2="105.76"/></g><g id="_Radial_Repeat_-23"><line class="cls-1" x1="102.64" y1="115.72" x2="84.77" y2="98.26"/></g><g id="_Radial_Repeat_-24"><line class="cls-1" x1="92.49" y1="120.07" x2="92.2" y2="95.08"/></g><path class="cls-3" d="m113.71,35.27c-1.71-16.45-15.61-29.27-32.51-29.27-15.47,0-28.42,10.75-31.82,25.19-2.88-.79-5.92-1.21-9.05-1.21-18.96,0-34.33,15.37-34.33,34.33s15.37,34.33,34.33,34.33c9.36,0,17.85-3.75,24.04-9.83,8.21,8.41,21.32,13.85,36.09,13.85,24.87,0,45.02-15.42,45.02-34.44,0-15.5-13.38-28.6-31.78-32.93Z"/></g></svg>