<?xml version="1.0" encoding="UTF-8"?><svg id="Layer_2" xmlns="http://www.w3.org/2000/svg" viewBox="0 0 145.37 129.06"><defs><style>.cls-1{fill:#706467;}.cls-2{fill:#f4f0dc;stroke:#706467;stroke-linecap:round;stroke-miterlimit:10;stroke-width:12px;}</style></defs><g id="Layer_10"><path class="cls-1" d="m145.36,26.44c0-.08,0-.16,0-.24h-.01c-.24-13.59-10.68-24.73-23.98-26.06-.41-.09-.83-.13-1.26-.13-.24,0-.47.01-.71.02-.24,0-.47-.02-.71-.02v.04c-14.05.74-25.25,12.4-25.25,26.63,0,3.31,2.69,6,6,6s6-2.69,6-6c0-7.85,6.2-14.26,13.96-14.64,7.68.37,13.83,6.66,13.95,14.4-.13,7.98-6.65,14.44-14.66,14.44v.1H6c-3.31,0-6,2.69-6,6s2.69,6,6,6h113.74c.58,0,1.14-.09,1.67-.24,13.28-1.35,23.71-12.49,23.94-26.06h.01c0-.08,0-.16,0-.24Z"/><path class="cls-1" d="m145.36,102.62c0,.08,0,.16,0,.24h-.01c-.24,13.59-10.68,24.73-23.98,26.06-.41.09-.83.13-1.26.13-.24,0-.47-.01-.71-.02-.24,0-.47.02-.71.02v-.04c-14.05-.74-25.25-12.4-25.25-26.63,0-3.31,2.69-6,6-6s6,2.69,6,6c0,7.85,6.2,14.26,13.96,14.64,7.68-.37,13.83-6.66,13.95-14.4-.13-7.98-6.65-14.44-14.66-14.44v-.1H30.54c-3.31,0-6-2.69-6-6s2.69-6,6-6h89.2c.58,0,1.14.09,1.67.24,13.28,1.35,23.71,12.49,23.94,26.06h.01c0,.08,0,.16,0,.24Z"/><line class="cls-2" x1="13.77" y1="64.52" x2="73.7" y2="64.52"/><line class="cls-2" x1="88.4" y1="64.52" x2="110.12" y2="64.52"/></g></svg>