<?xml version="1.0" encoding="UTF-8"?><svg id="Layer_2" xmlns="http://www.w3.org/2000/svg" viewBox="0 0 105 143.45"><defs><style>.cls-1{fill:#8bbc3f;}.cls-2{fill:#acef4d;}.cls-3{fill:#683318;stroke:#4c1f0f;stroke-width:9px;}.cls-3,.cls-4,.cls-5{stroke-miterlimit:10;}.cls-4{stroke:#6a9933;stroke-width:8px;}.cls-4,.cls-5{fill:none;}.cls-5{stroke:#99622c;stroke-linecap:round;stroke-width:5px;}</style></defs><g id="Layer_16"><path class="cls-1" d="m90.56,20.54c20.86,57.63,4.91,92.58-.5,101.98-.04-.09-.09-.17-.14-.25-27.29-40.21-5.3-89.91.64-101.73Z"/><path class="cls-2" d="m91.04,125.57v4.76c0,5.04-4.08,9.12-9.12,9.12H27.84c-5.04,0-9.12-4.08-9.12-9.12v-4.76h72.32Z"/><path class="cls-2" d="m89.15,17.95c1.23.12,1.99,1.45,1.42,2.6-5.94,11.82-27.93,61.51-.64,101.73.06.08.1.16.14.25-.99,1.71-1.62,2.58-1.62,2.58H20.29c-.58,0-1.12-.27-1.46-.74-31.19-42.85-4.15-97.59.02-105.46.31-.59.92-.96,1.59-.96h68.68s.02.01.02.01Z"/><path class="cls-2" d="m90.38,7.88l.05,10.07h-1.3c-.06-.01-.12-.01-.17-.01h-12.75l-56.89-.05V7.88c0-2.14,1.71-3.88,3.81-3.88h63.43c2.11,0,3.81,1.73,3.81,3.88Z"/><path class="cls-2" d="m90.06,122.52c.55,1.16-.27,2.58-1.62,2.58,0,0,.63-.86,1.62-2.58Z"/><path class="cls-2" d="m89.13,17.95h-12.93s12.75-.01,12.75-.01c.06,0,.12,0,.17.01Z"/><path class="cls-4" d="m89.15,17.95c1.23.12,1.99,1.45,1.42,2.6-5.94,11.82-27.93,61.51-.64,101.73.06.08.1.16.14.25.55,1.16-.27,2.58-1.62,2.58H20.29c-.58,0-1.12-.27-1.46-.74-31.19-42.85-4.15-97.59.02-105.46.31-.59.92-.96,1.59-.96h68.51c.06,0,.12,0,.17.01"/><path class="cls-4" d="m76.2,17.93l-56.89-.05V7.88c0-2.14,1.71-3.88,3.81-3.88h63.43c2.11,0,3.81,1.73,3.81,3.88l.05,10.07h-14.22Z"/><path class="cls-4" d="m81.92,139.45H27.84c-5.04,0-9.12-4.08-9.12-9.12v-4.76h72.32v4.76c0,5.04-4.08,9.12-9.12,9.12Z"/><path class="cls-4" d="m88.44,125.1s.63-.86,1.62-2.58c5.41-9.4,21.36-44.35.5-101.98"/><path class="cls-3" d="m36.29,49.97c-9.58,10.01-12.27,23.53-6.97,34.63.52,1.31,1.22,2.5,2.05,3.58,3.38,4.31,9.03,6.55,14.73,5.26,5.69-1.29,9.84-5.74,11.04-11.08.3-1.33.41-2.71.32-4.11.02-12.3-8.21-23.34-21.17-28.28Z"/><path class="cls-5" d="m35.95,63.07s-5.02,15.33,5.78,22.73"/></g></svg>