<?xml version="1.0" encoding="UTF-8"?><svg id="Layer_2" xmlns="http://www.w3.org/2000/svg" viewBox="0 0 563.61 739.74"><defs><style>.cls-1{fill:none;}.cls-1,.cls-2,.cls-3{stroke:#0c2d2c;stroke-miterlimit:10;stroke-width:12px;}.cls-4{fill:#0c2d2c;}.cls-2{fill:#e8e8e6;opacity:.54;}.cls-3{fill:#1d7374;}</style></defs><g id="Layer_22"><polygon class="cls-2" points="107.18 356.18 121.41 683.45 183.5 693.8 345.19 696.38 443.49 678.27 456.43 361.36 107.18 356.18"/><path class="cls-3" d="m297.39,127.13l88.48,84.61c3.08,2.94,4.81,7.01,4.81,11.27v25.52c0,6.07,3.52,11.59,9.03,14.14l148.85,69.09c15.15,7.03,10.13,29.73-6.56,29.73H21.61c-16.77,0-21.71-22.84-6.45-29.78l151.95-69.07c5.57-2.53,9.14-8.08,9.14-14.19v-25.6c0-4.16,1.66-8.15,4.62-11.08l85.36-84.51c2.94-2.91,6.92-4.54,11.07-4.51l9.42.06c3.98.03,7.8,1.57,10.68,4.32Z"/><rect class="cls-4" x="180.09" y="216.53" width="209.35" height="40"/><rect class="cls-3" x="45.27" y="668.91" width="473.07" height="64.82" rx="29.88" ry="29.88"/><line class="cls-1" x1="282.38" x2="282.38" y2="124.13"/></g></svg>