<?xml version="1.0" encoding="UTF-8"?><svg id="Layer_2" xmlns="http://www.w3.org/2000/svg" viewBox="0 0 151.49 157.59"><defs><style>.cls-1{fill:#ffdd4d;}.cls-2{fill:#f4f0dc;stroke:#706467;stroke-miterlimit:10;stroke-width:12px;}</style></defs><g id="Layer_6"><path class="cls-1" d="m31.66,157.59c7.79-7.42,16.49-13.7,25.37-19.69,0,0-3.9,6.94-3.9,6.94-3.05-12.24-5.18-29.1-6.82-41.61,11.29-6.07,22.76-7.61,34.56-12.58,0,0-5.51,9.81-5.51,9.81-.18-2.61-.1-9.51-.22-12.13-.48-9.76-.33-15.45-.1-25.23,3.69-1.03,7.71-2.37,11.41-3.35,7.81-2.15,15.52-3.99,23.69-5-7.86,7.52-16.44,13.71-25.37,19.73,0,0,3.91-6.97,3.91-6.97,2.54,10.2,4.53,20.53,6.07,30.92,0,0,.9,6.44.9,6.44-11.3,6.06-22.94,11.87-34.75,16.83,0,0,5.5-9.8,5.5-9.8.47,7.85.69,15.72.62,23.6-.04,4.25-.24,9.46-.3,13.75-11.52,3.43-23.08,6.86-35.06,8.34h0Z"/><path class="cls-2" d="m113.71,35.27c-1.71-16.45-15.61-29.27-32.51-29.27-15.47,0-28.42,10.75-31.82,25.19-2.88-.79-5.92-1.21-9.05-1.21-18.96,0-34.33,15.37-34.33,34.33s15.37,34.33,34.33,34.33c9.36,0,17.85-3.75,24.04-9.83,8.21,8.41,21.32,13.85,36.09,13.85,24.87,0,45.02-15.42,45.02-34.44,0-15.5-13.38-28.6-31.78-32.93Z"/></g></svg>