<?xml version="1.0" encoding="UTF-8"?><svg id="Layer_2" xmlns="http://www.w3.org/2000/svg" viewBox="0 0 81.23 211.15"><defs><style>.cls-1,.cls-2,.cls-3,.cls-4,.cls-5{stroke-miterlimit:10;stroke-width:8px;}.cls-1,.cls-3,.cls-4{stroke:#999971;}.cls-1,.cls-4{fill:#fff5c5;}.cls-1,.cls-5{stroke-linecap:round;}.cls-2{fill:#2b3699;stroke:#2b3699;}.cls-3{fill:#514a3f;}.cls-5{fill:none;stroke:#101638;}</style></defs><g id="Layer_16"><ellipse class="cls-2" cx="40.62" cy="201.43" rx="36.62" ry="5.73"/><path class="cls-4" d="m17.87,49.93h45.5v143.11c0,1.58-1.28,2.86-2.86,2.86H20.73c-1.58,0-2.86-1.28-2.86-2.86V49.93h0Z"/><ellipse class="cls-2" cx="40.62" cy="45.22" rx="36.62" ry="5.73"/><line class="cls-1" x1="58.63" y1="104" x2="76.91" y2="104"/><line class="cls-1" x1="4.14" y1="164.33" x2="22.41" y2="164.33"/><path class="cls-3" d="m59.41,103.92c-6.76,0-12.24-5.48-12.24-12.24s5.48-12.24,12.24-12.24"/><path class="cls-3" d="m21.57,164.63c6.76,0,12.24-5.48,12.24-12.24,0-6.76-5.48-12.24-12.24-12.24"/><line class="cls-5" x1="38.9" y1="40.19" x2="38.9" y2="4"/></g></svg>