<?xml version="1.0" encoding="UTF-8"?><svg id="Layer_2" xmlns="http://www.w3.org/2000/svg" viewBox="0 0 116.5 190.17"><defs><style>.cls-1{fill:#fff5c5;stroke:#999971;stroke-width:8px;}.cls-1,.cls-2,.cls-3{stroke-miterlimit:10;}.cls-2{fill:#d8526f;stroke:#a32946;}.cls-2,.cls-3{stroke-linecap:round;stroke-width:11px;}.cls-3{fill:none;stroke:#561729;}</style></defs><g id="Layer_16"><path class="cls-1" d="m78.77,131.67h-40.94l-14.28-45.21c-.4-1.26.54-2.55,1.87-2.55h66.36c.86,0,1.47.83,1.22,1.65l-14.23,46.11Z"/><path class="cls-1" d="m72.64,183.2h-28.5c-1.74,0-3.27-1.34-3.8-3.31l-11.79-44.45h59.4l-11.5,44.42c-.52,1.99-2.06,3.35-3.8,3.35Z"/><path class="cls-3" d="m59.57,56.23S24.99,5.56,58.17,5.56"/><path class="cls-3" d="m56.69,56.17s35.14-50.67,1.39-50.67"/><path class="cls-2" d="m31.44,57.82h53.19c3.24,0,6.11.81,7.09,2l18.94,23.04c1.51,1.84-2.06,3.72-7.09,3.72H12.94c-5,0-8.57-1.86-7.1-3.7l18.5-23.04c.96-1.2,3.84-2.01,7.1-2.01Z"/><line class="cls-2" x1="13.92" y1="133.91" x2="102.58" y2="133.91"/><line class="cls-2" x1="19.46" y1="184.67" x2="97.04" y2="184.67"/></g></svg>