<?xml version="1.0" encoding="UTF-8"?><svg id="Layer_2" xmlns="http://www.w3.org/2000/svg" xmlns:xlink="http://www.w3.org/1999/xlink" viewBox="0 0 117.93 136.81"><defs><style>.cls-1{fill:#ad7347;stroke:#724e30;stroke-width:7px;}.cls-1,.cls-2,.cls-3{stroke-linecap:round;stroke-miterlimit:10;}.cls-2{fill:url(#linear-gradient);}.cls-2,.cls-3{stroke:#a8541b;stroke-width:12px;}.cls-3{fill:url(#linear-gradient-2);}</style><linearGradient id="linear-gradient" x1="58.96" y1="141" x2="58.96" y2="34.09" gradientUnits="userSpaceOnUse"><stop offset="0" stop-color="#fff"/><stop offset=".03" stop-color="#fbb040"/><stop offset="1" stop-color="#ed743e"/></linearGradient><linearGradient id="linear-gradient-2" x1="58.69" y1="22.59" x2="58.69" y2="6" gradientUnits="userSpaceOnUse"><stop offset="0" stop-color="#fff"/><stop offset=".03" stop-color="#fbb040"/><stop offset="1" stop-color="#f15a29"/></linearGradient></defs><g id="Layer_16"><path class="cls-2" d="m93.76,24.1s40.87,79.53,0,98.65c-25.51,11.93-48.73,8.26-61.33,3.95-6.62-2.26-12.37-6.55-16.33-12.31-26.27-38.21,6.98-90.29,6.98-90.29h70.68Z"/><rect class="cls-3" x="22.83" y="6" width="71.73" height="16.59" rx="6.44" ry="6.44"/><path class="cls-1" d="m47.13,64.8s-14.17,31.53,7.77,40.67c0,0,11.42-10.05-7.77-40.67Z"/><path class="cls-1" d="m58.08,44.39s-14.17,31.53,7.77,40.67c0,0,11.42-10.05-7.77-40.67Z"/><path class="cls-1" d="m80.67,55.15s-31.35,14.55-20.76,35.82c0,0,15.22-.12,20.76-35.82Z"/></g></svg>