<?xml version="1.0" encoding="UTF-8"?><svg id="Layer_2" xmlns="http://www.w3.org/2000/svg" viewBox="0 0 74.81 55.74"><defs><style>.cls-1{stroke-width:3px;}.cls-1,.cls-2{fill:none;stroke:#6d4477;stroke-linecap:round;stroke-miterlimit:10;}.cls-3{fill:#7f70b7;}.cls-4{fill:#322e49;}.cls-2{stroke-width:5px;}</style></defs><g id="Layer_15"><path class="cls-3" d="m66.78,11.83c3.48-.03,6.11,3.15,5.42,6.56l-.72,3.56-.79-.16h-11.16l1.02-9.42v-.49s6.22-.05,6.22-.05Z"/><polygon class="cls-3" points="71.48 21.95 69.43 32.19 69.04 32.11 58.41 32.11 59.53 21.79 70.69 21.79 71.48 21.95"/><path class="cls-3" d="m69.43,32.19l-1.14,5.69c-.51,2.56-2.76,4.4-5.38,4.4h-5.57v-.27l1.07-9.9h10.63l.38.08Z"/><circle class="cls-4" cx="61.57" cy="49.6" r="4.64"/><polygon class="cls-3" points="60.55 11.88 60.56 12.37 59.53 21.79 47.02 21.79 47.08 11.99 60.55 11.88"/><polygon class="cls-3" points="59.53 21.79 58.41 32.11 46.95 32.11 47.02 21.79 59.53 21.79"/><polygon class="cls-3" points="58.41 32.11 57.34 42.01 57.34 42.28 46.89 42.28 46.89 41.8 46.95 32.11 58.41 32.11"/><polygon class="cls-3" points="47.08 11.99 47.02 21.79 34.38 21.79 33.15 12.1 47.08 11.99"/><polygon class="cls-3" points="47.02 21.79 46.95 32.11 35.68 32.11 34.38 21.79 47.02 21.79"/><polygon class="cls-3" points="46.95 32.11 46.89 41.8 46.89 42.28 36.89 42.28 36.89 41.68 35.68 32.11 46.95 32.11"/><path class="cls-3" d="m36.89,41.68v.6h-5.94c-2.49,0-4.67-1.68-5.3-4.09l-1.56-5.94.55-.14h11.05l1.21,9.57Z"/><polygon class="cls-3" points="34.38 21.79 35.68 32.11 24.63 32.11 24.09 32.25 21.35 21.87 21.64 21.79 34.38 21.79"/><circle class="cls-4" cx="31.81" cy="49.6" r="4.64"/><polygon class="cls-3" points="33.15 12.1 34.38 21.79 21.64 21.79 21.35 21.87 18.81 12.22 33.15 12.1"/><path class="cls-2" d="m2.5,2.5h10.25c2.07,0,3.88,1.4,4.4,3.4l1.66,6.32,2.54,9.65,2.73,10.38,1.56,5.94c.63,2.41,2.81,4.09,5.3,4.09h31.95c2.61,0,4.86-1.84,5.38-4.4l1.14-5.69,2.06-10.24.72-3.56c.69-3.41-1.94-6.59-5.42-6.56l-6.22.05-13.47.11-13.93.11-14.34.12h-.01"/><polyline class="cls-2" points="36.89 41.68 35.68 32.11 34.38 21.79 33.15 12.1"/><polyline class="cls-2" points="46.89 41.8 46.95 32.11 47.02 21.79 47.08 11.99 47.08 11.99"/><polyline class="cls-2" points="57.34 42.01 58.41 32.11 59.53 21.79 60.56 12.37"/><polyline class="cls-2" points="21.64 21.79 34.38 21.79 47.02 21.79 59.53 21.79 70.69 21.79"/><polyline class="cls-2" points="24.63 32.11 35.68 32.11 46.95 32.11 58.41 32.11 69.04 32.11"/><circle class="cls-1" cx="31.81" cy="49.6" r="4.64"/><circle class="cls-1" cx="61.57" cy="49.6" r="4.64"/></g></svg>