<?xml version="1.0" encoding="UTF-8"?><svg id="Layer_2" xmlns="http://www.w3.org/2000/svg" viewBox="0 0 155.78 120.15"><defs><style>.cls-1{fill:#e2f2f1;stroke:#5c636d;stroke-width:8px;}.cls-1,.cls-2{stroke-miterlimit:10;}.cls-2{fill:#f4f0dc;stroke:#706467;stroke-width:12px;}</style></defs><g id="Layer_9"><path class="cls-1" d="m37.51,5.66c.33-1.6,2.31-2.21,3.47-1.06,10.14,10.1,11.24,26.73,2,38.79-9.23,12.06-25.57,15.34-37.97,8.19-1.42-.82-1.34-2.89.12-3.63l8.62-4.35c11.24-5.67,19.27-16.16,21.81-28.49l1.95-9.45Z"/><path class="cls-2" d="m118,46.78c-1.71-16.45-15.61-29.27-32.51-29.27-15.47,0-28.42,10.75-31.82,25.19-2.88-.79-5.92-1.21-9.05-1.21-18.96,0-34.33,15.37-34.33,34.33s15.37,34.33,34.33,34.33c9.36,0,17.85-3.75,24.04-9.83,8.21,8.41,21.32,13.85,36.09,13.85,24.87,0,45.02-15.42,45.02-34.44,0-15.5-13.38-28.6-31.78-32.93Z"/></g></svg>